# MagicaVoxel @ ephtracy

# material
mtllib alex.mtl
usemtl palette

# normals
vn -1 0 0
vn 1 0 0
vn 0 0 1
vn 0 0 -1
vn 0 -1 0
vn 0 1 0

# texcoords
vt 0.0332031 0.5
vt 0.0605469 0.5
vt 0.634766 0.5
vt 0.794922 0.5
vt 0.810547 0.5
vt 0.869141 0.5
vt 0.873047 0.5
vt 0.931641 0.5
vt 0.962891 0.5
vt 0.986328 0.5
vt 0.994141 0.5

# verts and faces
v -3 1 0.5
v -3 1 -0.5
v -3 2 0.5
v -3 2 -0.5
v -3 5 1.5
v -3 5 0.5
v -3 5 -0.5
v -3 5 -1.5
v -3 6 0.5
v -3 6 -0.5
v -3 8 2.5
v -3 8 1.5
v -3 8 0.5
v -3 8 -1.5
v -3 9 2.5
v -3 9 0.5
v -3 9 -0.5
v -3 9 -1.5
v -3 10 0.5
v -3 10 -0.5
f -18/2/1 -19/2/1 -20/2/1
f -17/2/1 -19/2/1 -18/2/1
f -15/11/1 -17/11/1 -18/11/1
f -14/11/1 -17/11/1 -15/11/1
f -12/7/1 -15/7/1 -16/7/1
f -11/7/1 -13/7/1 -14/7/1
f -9/7/1 -12/7/1 -16/7/1
f -9/7/1 -11/7/1 -12/7/1
f -8/7/1 -11/7/1 -9/7/1
f -7/7/1 -13/7/1 -11/7/1
f -7/7/1 -11/7/1 -8/7/1
f -6/7/1 -8/7/1 -9/7/1
f -6/7/1 -9/7/1 -10/7/1
f -5/6/1 -7/6/1 -8/6/1
f -5/7/1 -8/7/1 -6/7/1
f -4/6/1 -7/6/1 -5/6/1
f -3/6/1 -7/6/1 -4/6/1
f -2/6/1 -4/6/1 -5/6/1
f -1/6/1 -4/6/1 -2/6/1
v -2 0 0.5
v -2 0 -1.5
v -2 1 1.5
v -2 1 0.5
v -2 1 -0.5
v -2 1 -1.5
v -2 1 -2.5
v -2 2 1.5
v -2 2 0.5
v -2 2 -0.5
v -2 2 -2.5
v -2 5 1.5
v -2 5 0.5
v -2 5 -0.5
v -2 5 -1.5
v -2 5 -2.5
v -2 6 0.5
v -2 6 -0.5
v -2 8 3.5
v -2 8 2.5
v -2 8 -1.5
v -2 8 -2.5
v -2 9 3.5
v -2 9 2.5
v -2 9 1.5
v -2 9 0.5
v -2 9 -0.5
v -2 9 -1.5
v -2 10 1.5
v -2 10 0.5
v -2 10 -0.5
v -2 10 -1.5
v -2 10 -2.5
v -2 11 0.5
v -2 11 -1.5
f -32/5/1 -34/5/1 -35/5/1
f -31/5/1 -34/5/1 -32/5/1
f -30/5/1 -34/5/1 -31/5/1
f -28/5/1 -32/5/1 -33/5/1
f -27/5/1 -32/5/1 -28/5/1
f -26/5/1 -29/5/1 -30/5/1
f -26/5/1 -30/5/1 -31/5/1
f -25/5/1 -29/5/1 -26/5/1
f -24/8/1 -27/8/1 -28/8/1
f -23/8/1 -27/8/1 -24/8/1
f -22/8/1 -25/8/1 -26/8/1
f -21/8/1 -25/8/1 -22/8/1
f -20/8/1 -25/8/1 -21/8/1
f -19/7/1 -22/7/1 -23/7/1
f -18/7/1 -22/7/1 -19/7/1
f -15/7/1 -20/7/1 -21/7/1
f -14/7/1 -20/7/1 -15/7/1
f -13/6/1 -16/6/1 -17/6/1
f -12/6/1 -16/6/1 -13/6/1
f -8/6/1 -14/6/1 -15/6/1
f -7/6/1 -10/6/1 -11/6/1
f -6/6/1 -10/6/1 -7/6/1
f -5/6/1 -8/6/1 -9/6/1
f -4/6/1 -14/6/1 -8/6/1
f -4/6/1 -8/6/1 -5/6/1
f -3/6/1 -14/6/1 -4/6/1
f -2/6/1 -5/6/1 -6/6/1
f -2/6/1 -4/6/1 -5/6/1
f -1/6/1 -4/6/1 -2/6/1
v -1 5 -2.5
v -1 5 -3.5
v -1 6 -2.5
v -1 6 -3.5
v -1 7 -2.5
v -1 7 -3.5
v -1 8 -2.5
v -1 8 -3.5
v -1 9 2.5
v -1 9 1.5
v -1 9 -2.5
v -1 9 -3.5
v -1 10 2.5
v -1 10 1.5
v -1 10 0.5
v -1 10 -1.5
v -1 10 -2.5
v -1 10 -3.5
v -1 11 1.5
v -1 11 0.5
v -1 11 -1.5
v -1 11 -2.5
f -20/7/1 -21/7/1 -22/7/1
f -19/7/1 -21/7/1 -20/7/1
f -18/6/1 -19/6/1 -20/6/1
f -17/6/1 -19/6/1 -18/6/1
f -16/7/1 -17/7/1 -18/7/1
f -15/7/1 -17/7/1 -16/7/1
f -12/6/1 -15/6/1 -16/6/1
f -11/6/1 -15/6/1 -12/6/1
f -10/6/1 -13/6/1 -14/6/1
f -9/6/1 -13/6/1 -10/6/1
f -6/7/1 -11/7/1 -12/7/1
f -5/7/1 -11/7/1 -6/7/1
f -4/6/1 -8/6/1 -9/6/1
f -3/6/1 -8/6/1 -4/6/1
f -2/6/1 -6/6/1 -7/6/1
f -1/6/1 -6/6/1 -2/6/1
v 1 0 0.5
v 1 0 -1.5
v 1 1 0.5
v 1 1 -1.5
f -2/5/1 -3/5/1 -4/5/1
f -1/5/1 -3/5/1 -2/5/1
v -1 0 0.5
v -1 0 -1.5
v -1 1 0.5
v -1 1 -1.5
f -4/5/2 -3/5/2 -2/5/2
f -2/5/2 -3/5/2 -1/5/2
v 1 5 -2.5
v 1 5 -3.5
v 1 8 3.5
v 1 8 2.5
v 1 9 3.5
v 1 9 2.5
v 1 9 -2.5
v 1 9 -3.5
v 1 10 1.5
v 1 10 0.5
v 1 10 -1.5
v 1 10 -2.5
v 1 10 -3.5
v 1 11 1.5
v 1 11 0.5
v 1 11 -1.5
v 1 11 -2.5
f -15/7/2 -14/7/2 -13/7/2
f -13/7/2 -14/7/2 -12/7/2
f -17/7/2 -16/7/2 -11/7/2
f -11/7/2 -16/7/2 -10/7/2
f -11/6/2 -10/6/2 -6/6/2
f -6/6/2 -10/6/2 -5/6/2
f -9/6/2 -8/6/2 -4/6/2
f -4/6/2 -8/6/2 -3/6/2
f -7/6/2 -6/6/2 -2/6/2
f -2/6/2 -6/6/2 -1/6/2
v 2 0 0.5
v 2 0 -1.5
v 2 1 1.5
v 2 1 0.5
v 2 1 -0.5
v 2 1 -1.5
v 2 1 -2.5
v 2 2 1.5
v 2 2 0.5
v 2 2 -0.5
v 2 2 -2.5
v 2 5 1.5
v 2 5 0.5
v 2 5 -0.5
v 2 5 -1.5
v 2 5 -2.5
v 2 6 0.5
v 2 6 -0.5
v 2 10 0.5
v 2 10 -0.5
v 2 10 -1.5
v 2 10 -2.5
v 2 11 0.5
v 2 11 -0.5
v 2 11 -1.5
f -25/5/2 -24/5/2 -22/5/2
f -22/5/2 -24/5/2 -21/5/2
f -21/5/2 -24/5/2 -20/5/2
f -23/5/2 -22/5/2 -18/5/2
f -18/5/2 -22/5/2 -17/5/2
f -20/5/2 -19/5/2 -16/5/2
f -21/5/2 -20/5/2 -16/5/2
f -16/5/2 -19/5/2 -15/5/2
f -18/8/2 -17/8/2 -14/8/2
f -14/8/2 -17/8/2 -13/8/2
f -16/8/2 -15/8/2 -12/8/2
f -12/8/2 -15/8/2 -11/8/2
f -11/8/2 -15/8/2 -10/8/2
f -13/7/2 -12/7/2 -9/7/2
f -9/7/2 -12/7/2 -8/7/2
f -11/7/2 -10/7/2 -5/7/2
f -5/7/2 -10/7/2 -4/7/2
f -7/6/2 -6/6/2 -3/6/2
f -6/7/2 -5/7/2 -2/7/2
f -3/6/2 -6/6/2 -2/6/2
f -2/7/2 -5/7/2 -1/7/2
v 3 1 0.5
v 3 1 -0.5
v 3 2 0.5
v 3 2 -0.5
v 3 5 1.5
v 3 5 0.5
v 3 5 -0.5
v 3 5 -1.5
v 3 6 0.5
v 3 6 -0.5
v 3 8 2.5
v 3 8 1.5
v 3 9 2.5
v 3 9 -0.5
v 3 10 2.5
v 3 10 -1.5
f -16/2/2 -15/2/2 -14/2/2
f -14/2/2 -15/2/2 -13/2/2
f -14/11/2 -13/11/2 -11/11/2
f -11/11/2 -13/11/2 -10/11/2
f -12/6/2 -11/6/2 -8/6/2
f -10/7/2 -9/7/2 -7/7/2
f -12/6/2 -8/6/2 -5/6/2
f -8/6/2 -7/6/2 -5/6/2
f -6/6/2 -5/6/2 -4/6/2
f -7/7/2 -9/7/2 -3/7/2
f -4/6/2 -5/6/2 -3/6/2
f -5/6/2 -7/6/2 -3/6/2
f -4/7/2 -3/7/2 -2/7/2
f -3/7/2 -9/7/2 -1/7/2
f -2/7/2 -3/7/2 -1/7/2
v -2 8 3.5
v -2 9 3.5
v -1 8 3.5
v -1 9 3.5
v 1 8 3.5
v 1 9 3.5
f -4/6/3 -5/6/3 -6/6/3
f -3/6/3 -5/6/3 -4/6/3
f -2/7/3 -3/7/3 -4/7/3
f -1/7/3 -3/7/3 -2/7/3
v -3 8 2.5
v -3 9 2.5
v -2 8 2.5
v -2 9 2.5
v -1 9 2.5
v -1 10 2.5
v 0 9 2.5
v 0 10 2.5
v 1 8 2.5
v 1 9 2.5
v 3 8 2.5
v 3 9 2.5
v 3 10 2.5
f -11/7/3 -12/7/3 -13/7/3
f -10/7/3 -12/7/3 -11/7/3
f -7/6/3 -8/6/3 -9/6/3
f -6/6/3 -8/6/3 -7/6/3
f -4/7/3 -6/7/3 -7/7/3
f -3/6/3 -4/6/3 -5/6/3
f -2/7/3 -6/7/3 -4/7/3
f -2/6/3 -4/6/3 -3/6/3
f -1/7/3 -6/7/3 -2/7/3
v -3 5 1.5
v -3 8 1.5
v -2 1 1.5
v -2 2 1.5
v -2 5 1.5
v -2 6 1.5
v -2 7 1.5
v -2 8 1.5
v -2 9 1.5
v -2 10 1.5
v -1 2 1.5
v -1 3 1.5
v -1 4 1.5
v -1 5 1.5
v -1 6 1.5
v -1 7 1.5
v -1 8 1.5
v -1 9 1.5
v -1 10 1.5
v -1 11 1.5
v 0 3 1.5
v 0 4 1.5
v 0 10 1.5
v 1 2 1.5
v 1 5 1.5
v 1 6 1.5
v 1 7 1.5
v 1 10 1.5
v 1 11 1.5
v 2 1 1.5
v 2 2 1.5
v 2 5 1.5
v 2 6 1.5
v 2 7 1.5
v 2 8 1.5
v 3 5 1.5
v 3 8 1.5
f -33/7/3 -36/7/3 -37/7/3
f -32/7/3 -36/7/3 -33/7/3
f -31/7/3 -36/7/3 -32/7/3
f -30/7/3 -36/7/3 -31/7/3
f -27/5/3 -34/5/3 -35/5/3
f -27/8/3 -33/8/3 -34/8/3
f -26/8/3 -33/8/3 -27/8/3
f -25/8/3 -33/8/3 -26/8/3
f -24/2/3 -32/2/3 -33/2/3
f -24/8/3 -33/8/3 -25/8/3
f -23/3/3 -31/3/3 -32/3/3
f -23/2/3 -32/2/3 -24/2/3
f -22/2/3 -30/2/3 -31/2/3
f -22/3/3 -31/3/3 -23/3/3
f -21/2/3 -30/2/3 -22/2/3
f -20/6/3 -28/6/3 -29/6/3
f -19/6/3 -28/6/3 -20/6/3
f -17/9/3 -25/9/3 -26/9/3
f -17/4/3 -26/4/3 -27/4/3
f -16/4/3 -24/4/3 -25/4/3
f -16/9/3 -25/9/3 -17/9/3
f -15/6/3 -18/6/3 -19/6/3
f -14/4/3 -17/4/3 -27/4/3
f -14/5/3 -27/5/3 -35/5/3
f -14/4/3 -16/4/3 -17/4/3
f -13/10/3 -23/10/3 -24/10/3
f -13/4/3 -16/4/3 -14/4/3
f -13/4/3 -24/4/3 -16/4/3
f -12/1/3 -21/1/3 -22/1/3
f -12/10/3 -23/10/3 -13/10/3
f -12/1/3 -22/1/3 -23/1/3
f -11/1/3 -21/1/3 -12/1/3
f -10/6/3 -18/6/3 -15/6/3
f -9/6/3 -18/6/3 -10/6/3
f -8/5/3 -14/5/3 -35/5/3
f -7/8/3 -13/8/3 -14/8/3
f -7/5/3 -14/5/3 -8/5/3
f -6/1/3 -12/1/3 -13/1/3
f -6/8/3 -13/8/3 -7/8/3
f -5/3/3 -11/3/3 -12/3/3
f -5/1/3 -12/1/3 -6/1/3
f -4/1/3 -21/1/3 -11/1/3
f -4/3/3 -11/3/3 -5/3/3
f -3/1/3 -21/1/3 -4/1/3
f -2/6/3 -5/6/3 -6/6/3
f -2/6/3 -3/6/3 -4/6/3
f -2/6/3 -4/6/3 -5/6/3
f -1/6/3 -3/6/3 -2/6/3
v -3 1 0.5
v -3 2 0.5
v -3 5 0.5
v -3 9 0.5
v -3 10 0.5
v -2 0 0.5
v -2 1 0.5
v -2 2 0.5
v -2 5 0.5
v -2 9 0.5
v -2 10 0.5
v -2 11 0.5
v -1 0 0.5
v -1 1 0.5
v -1 10 0.5
v -1 11 0.5
v 1 0 0.5
v 1 1 0.5
v 1 10 0.5
v 1 11 0.5
v 2 0 0.5
v 2 1 0.5
v 2 2 0.5
v 2 5 0.5
v 2 10 0.5
v 2 11 0.5
v 3 1 0.5
v 3 2 0.5
v 3 5 0.5
f -23/2/3 -28/2/3 -29/2/3
f -22/11/3 -27/11/3 -28/11/3
f -22/2/3 -28/2/3 -23/2/3
f -21/11/3 -27/11/3 -22/11/3
f -20/6/3 -25/6/3 -26/6/3
f -19/6/3 -25/6/3 -20/6/3
f -17/5/3 -23/5/3 -24/5/3
f -16/5/3 -23/5/3 -17/5/3
f -15/6/3 -18/6/3 -19/6/3
f -14/6/3 -18/6/3 -15/6/3
f -9/5/3 -12/5/3 -13/5/3
f -8/5/3 -12/5/3 -9/5/3
f -5/6/3 -10/6/3 -11/6/3
f -4/6/3 -10/6/3 -5/6/3
f -3/2/3 -7/2/3 -8/2/3
f -2/11/3 -6/11/3 -7/11/3
f -2/2/3 -7/2/3 -3/2/3
f -1/11/3 -6/11/3 -2/11/3
v -3 5 -0.5
v -3 6 -0.5
v -2 5 -0.5
v -2 6 -0.5
v 2 5 -0.5
v 2 6 -0.5
v 3 5 -0.5
v 3 6 -0.5
f -6/7/3 -7/7/3 -8/7/3
f -5/7/3 -7/7/3 -6/7/3
f -2/7/3 -3/7/3 -4/7/3
f -1/7/3 -3/7/3 -2/7/3
v -3 5 0.5
v -3 6 0.5
v -2 5 0.5
v -2 6 0.5
v 2 5 0.5
v 2 6 0.5
v 3 5 0.5
v 3 6 0.5
f -8/7/4 -7/7/4 -6/7/4
f -6/7/4 -7/7/4 -5/7/4
f -4/6/4 -3/6/4 -2/6/4
f -2/6/4 -3/6/4 -1/6/4
v -3 1 -0.5
v -3 2 -0.5
v -3 5 -0.5
v -3 9 -0.5
v -3 10 -0.5
v -2 1 -0.5
v -2 2 -0.5
v -2 5 -0.5
v -2 9 -0.5
v -2 10 -0.5
v 2 1 -0.5
v 2 2 -0.5
v 2 5 -0.5
v 3 1 -0.5
v 3 2 -0.5
v 3 5 -0.5
f -16/2/4 -15/2/4 -11/2/4
f -15/11/4 -14/11/4 -10/11/4
f -11/2/4 -15/2/4 -10/2/4
f -10/11/4 -14/11/4 -9/11/4
f -13/6/4 -12/6/4 -8/6/4
f -8/6/4 -12/6/4 -7/6/4
f -6/2/4 -5/2/4 -3/2/4
f -5/11/4 -4/11/4 -2/11/4
f -3/2/4 -5/2/4 -2/2/4
f -2/11/4 -4/11/4 -1/11/4
v -3 5 -1.5
v -3 8 -1.5
v -3 9 -1.5
v -2 0 -1.5
v -2 1 -1.5
v -2 5 -1.5
v -2 8 -1.5
v -2 9 -1.5
v -2 10 -1.5
v -2 11 -1.5
v -1 0 -1.5
v -1 1 -1.5
v -1 10 -1.5
v -1 11 -1.5
v 1 0 -1.5
v 1 1 -1.5
v 1 10 -1.5
v 1 11 -1.5
v 2 0 -1.5
v 2 1 -1.5
v 2 5 -1.5
v 2 10 -1.5
v 2 11 -1.5
v 3 5 -1.5
v 3 10 -1.5
f -25/7/4 -24/7/4 -20/7/4
f -24/6/4 -23/6/4 -19/6/4
f -20/7/4 -24/7/4 -19/7/4
f -19/6/4 -23/6/4 -18/6/4
f -22/5/4 -21/5/4 -15/5/4
f -15/5/4 -21/5/4 -14/5/4
f -17/6/4 -16/6/4 -13/6/4
f -13/6/4 -16/6/4 -12/6/4
f -11/5/4 -10/5/4 -7/5/4
f -7/5/4 -10/5/4 -6/5/4
f -9/7/4 -8/7/4 -4/7/4
f -4/7/4 -8/7/4 -3/7/4
f -5/7/4 -4/7/4 -2/7/4
f -2/7/4 -4/7/4 -1/7/4
v -2 1 -2.5
v -2 2 -2.5
v -2 5 -2.5
v -2 8 -2.5
v -2 10 -2.5
v -1 5 -2.5
v -1 6 -2.5
v -1 7 -2.5
v -1 8 -2.5
v -1 9 -2.5
v -1 10 -2.5
v -1 11 -2.5
v 0 10 -2.5
v 1 5 -2.5
v 1 9 -2.5
v 1 10 -2.5
v 1 11 -2.5
v 2 1 -2.5
v 2 2 -2.5
v 2 5 -2.5
v 2 10 -2.5
f -20/8/4 -19/8/4 -16/8/4
f -19/7/4 -18/7/4 -16/7/4
f -16/7/4 -18/7/4 -15/7/4
f -15/7/4 -18/7/4 -14/7/4
f -18/6/4 -17/6/4 -13/6/4
f -14/7/4 -18/7/4 -13/7/4
f -13/6/4 -17/6/4 -12/6/4
f -12/6/4 -17/6/4 -11/6/4
f -11/6/4 -10/6/4 -9/6/4
f -20/8/4 -16/8/4 -8/8/4
f -9/6/4 -10/6/4 -6/6/4
f -6/6/4 -10/6/4 -5/6/4
f -21/5/4 -20/5/4 -4/5/4
f -20/8/4 -8/8/4 -3/8/4
f -4/5/4 -20/5/4 -3/5/4
f -8/7/4 -7/7/4 -2/7/4
f -3/8/4 -8/8/4 -2/8/4
f -7/7/4 -6/7/4 -2/7/4
f -2/7/4 -6/7/4 -1/7/4
v -1 5 -3.5
v -1 6 -3.5
v -1 7 -3.5
v -1 8 -3.5
v -1 9 -3.5
v -1 10 -3.5
v 0 6 -3.5
v 0 7 -3.5
v 0 8 -3.5
v 0 9 -3.5
v 0 10 -3.5
v 1 5 -3.5
v 1 9 -3.5
v 1 10 -3.5
f -14/7/4 -13/7/4 -8/7/4
f -13/6/4 -12/6/4 -8/6/4
f -12/7/4 -11/7/4 -7/7/4
f -8/6/4 -12/6/4 -7/6/4
f -11/6/4 -10/6/4 -6/6/4
f -7/7/4 -11/7/4 -6/7/4
f -10/7/4 -9/7/4 -5/7/4
f -6/6/4 -10/6/4 -5/6/4
f -5/7/4 -9/7/4 -4/7/4
f -7/7/4 -6/7/4 -3/7/4
f -8/7/4 -7/7/4 -3/7/4
f -14/7/4 -8/7/4 -3/7/4
f -6/7/4 -5/7/4 -3/7/4
f -5/6/4 -4/6/4 -2/6/4
f -3/7/4 -5/7/4 -2/7/4
f -2/6/4 -4/6/4 -1/6/4
v -2 0 0.5
v -1 0 0.5
v 1 0 0.5
v 2 0 0.5
v -2 0 -1.5
v -1 0 -1.5
v 1 0 -1.5
v 2 0 -1.5
f -4/5/5 -7/5/5 -8/5/5
f -3/5/5 -7/5/5 -4/5/5
f -2/5/5 -5/5/5 -6/5/5
f -1/5/5 -5/5/5 -2/5/5
v -2 1 1.5
v 2 1 1.5
v -3 1 0.5
v -2 1 0.5
v -1 1 0.5
v 1 1 0.5
v 2 1 0.5
v 3 1 0.5
v -3 1 -0.5
v -2 1 -0.5
v 2 1 -0.5
v 3 1 -0.5
v -2 1 -1.5
v -1 1 -1.5
v 1 1 -1.5
v 2 1 -1.5
v -2 1 -2.5
v 2 1 -2.5
f -15/5/5 -17/5/5 -18/5/5
f -14/5/5 -17/5/5 -15/5/5
f -13/5/5 -17/5/5 -14/5/5
f -12/5/5 -17/5/5 -13/5/5
f -10/2/5 -15/2/5 -16/2/5
f -9/2/5 -15/2/5 -10/2/5
f -8/2/5 -11/2/5 -12/2/5
f -7/2/5 -11/2/5 -8/2/5
f -5/5/5 -13/5/5 -14/5/5
f -4/5/5 -13/5/5 -5/5/5
f -2/5/5 -5/5/5 -6/5/5
f -2/5/5 -3/5/5 -4/5/5
f -2/5/5 -4/5/5 -5/5/5
f -1/5/5 -3/5/5 -2/5/5
v -3 5 1.5
v -2 5 1.5
v 2 5 1.5
v 3 5 1.5
v -3 5 0.5
v -2 5 0.5
v 2 5 0.5
v 3 5 0.5
v -3 5 -0.5
v -2 5 -0.5
v 2 5 -0.5
v 3 5 -0.5
v -3 5 -1.5
v -2 5 -1.5
v 2 5 -1.5
v 3 5 -1.5
v -1 5 -2.5
v 1 5 -2.5
v -1 5 -3.5
v 1 5 -3.5
f -16/7/5 -19/7/5 -20/7/5
f -15/7/5 -19/7/5 -16/7/5
f -14/6/5 -17/6/5 -18/6/5
f -13/6/5 -17/6/5 -14/6/5
f -8/7/5 -11/7/5 -12/7/5
f -7/7/5 -11/7/5 -8/7/5
f -6/7/5 -9/7/5 -10/7/5
f -5/7/5 -9/7/5 -6/7/5
f -2/7/5 -3/7/5 -4/7/5
f -1/7/5 -3/7/5 -2/7/5
v -3 6 0.5
v -2 6 0.5
v 2 6 0.5
v 3 6 0.5
v -3 6 -0.5
v -2 6 -0.5
v 2 6 -0.5
v 3 6 -0.5
f -4/7/5 -7/7/5 -8/7/5
f -3/7/5 -7/7/5 -4/7/5
f -2/6/5 -5/6/5 -6/6/5
f -1/6/5 -5/6/5 -2/6/5
v -2 8 3.5
v -1 8 3.5
v 1 8 3.5
v -3 8 2.5
v -2 8 2.5
v -1 8 2.5
v 1 8 2.5
v 3 8 2.5
v -3 8 1.5
v -2 8 1.5
v -1 8 1.5
v 2 8 1.5
v 3 8 1.5
f -9/6/5 -12/6/5 -13/6/5
f -8/7/5 -11/7/5 -12/7/5
f -8/6/5 -12/6/5 -9/6/5
f -7/7/5 -11/7/5 -8/7/5
f -5/7/5 -9/7/5 -10/7/5
f -4/6/5 -6/6/5 -7/6/5
f -4/7/5 -9/7/5 -5/7/5
f -4/6/5 -8/6/5 -9/6/5
f -4/6/5 -7/6/5 -8/6/5
f -3/6/5 -6/6/5 -4/6/5
f -2/6/5 -6/6/5 -3/6/5
f -1/6/5 -6/6/5 -2/6/5
v -3 5 0.5
v -2 5 0.5
v 2 5 0.5
v 3 5 0.5
v -3 5 -0.5
v -2 5 -0.5
v 2 5 -0.5
v 3 5 -0.5
f -8/11/6 -7/11/6 -4/11/6
f -4/11/6 -7/11/6 -3/11/6
f -6/11/6 -5/11/6 -2/11/6
f -2/11/6 -5/11/6 -1/11/6
v -2 9 3.5
v -1 9 3.5
v 1 9 3.5
v -3 9 2.5
v -2 9 2.5
v -1 9 2.5
v 0 9 2.5
v 1 9 2.5
v -2 9 1.5
v -1 9 1.5
v -3 9 0.5
v -2 9 0.5
v -3 9 -0.5
v -2 9 -0.5
v -3 9 -1.5
v -2 9 -1.5
f -16/6/6 -15/6/6 -12/6/6
f -15/7/6 -14/7/6 -11/7/6
f -12/6/6 -15/6/6 -11/6/6
f -11/7/6 -14/7/6 -10/7/6
f -10/7/6 -14/7/6 -9/7/6
f -13/7/6 -12/7/6 -8/7/6
f -12/6/6 -11/6/6 -8/6/6
f -8/6/6 -11/6/6 -7/6/6
f -13/7/6 -8/7/6 -6/7/6
f -6/7/6 -8/7/6 -5/7/6
f -4/6/6 -3/6/6 -2/6/6
f -2/6/6 -3/6/6 -1/6/6
v -1 10 2.5
v 0 10 2.5
v 3 10 2.5
v -2 10 1.5
v -1 10 1.5
v 0 10 1.5
v 1 10 1.5
v -3 10 0.5
v -2 10 0.5
v -1 10 0.5
v 1 10 0.5
v 2 10 0.5
v -3 10 -0.5
v -2 10 -0.5
v 2 10 -0.5
v -2 10 -1.5
v -1 10 -1.5
v 1 10 -1.5
v 2 10 -1.5
v 3 10 -1.5
v -2 10 -2.5
v -1 10 -2.5
v 0 10 -2.5
v 1 10 -2.5
v 2 10 -2.5
v -1 10 -3.5
v 0 10 -3.5
v 1 10 -3.5
f -28/6/6 -27/6/6 -24/6/6
f -27/7/6 -26/7/6 -23/7/6
f -24/6/6 -27/6/6 -23/6/6
f -23/7/6 -26/7/6 -22/7/6
f -25/6/6 -24/6/6 -20/6/6
f -20/6/6 -24/6/6 -19/6/6
f -22/7/6 -26/7/6 -18/7/6
f -18/7/6 -26/7/6 -17/7/6
f -21/6/6 -20/6/6 -16/6/6
f -16/6/6 -20/6/6 -15/6/6
f -17/7/6 -26/7/6 -14/7/6
f -14/7/6 -26/7/6 -10/7/6
f -10/7/6 -26/7/6 -9/7/6
f -13/6/6 -12/6/6 -8/6/6
f -8/6/6 -12/6/6 -7/6/6
f -11/7/6 -10/7/6 -5/7/6
f -5/7/6 -10/7/6 -4/7/6
f -7/7/6 -6/7/6 -3/7/6
f -6/6/6 -5/6/6 -2/6/6
f -3/7/6 -6/7/6 -2/7/6
f -2/6/6 -5/6/6 -1/6/6
v -1 11 1.5
v 1 11 1.5
v -2 11 0.5
v -1 11 0.5
v 0 11 0.5
v 1 11 0.5
v 2 11 0.5
v -1 11 -0.5
v 0 11 -0.5
v 1 11 -0.5
v 2 11 -0.5
v -2 11 -1.5
v -1 11 -1.5
v 1 11 -1.5
v 2 11 -1.5
v -1 11 -2.5
v 1 11 -2.5
f -17/6/6 -16/6/6 -14/6/6
f -14/6/6 -16/6/6 -13/6/6
f -13/6/6 -16/6/6 -12/6/6
f -15/6/6 -14/6/6 -10/6/6
f -14/6/6 -13/6/6 -10/6/6
f -13/7/6 -12/7/6 -9/7/6
f -10/6/6 -13/6/6 -9/6/6
f -12/6/6 -11/6/6 -8/6/6
f -9/7/6 -12/7/6 -8/7/6
f -8/6/6 -11/6/6 -7/6/6
f -15/6/6 -10/6/6 -6/6/6
f -10/7/6 -9/7/6 -5/7/6
f -6/6/6 -10/6/6 -5/6/6
f -9/7/6 -8/7/6 -5/7/6
f -8/7/6 -7/7/6 -5/7/6
f -5/7/6 -7/7/6 -4/7/6
f -4/7/6 -7/7/6 -3/7/6
f -5/6/6 -4/6/6 -2/6/6
f -2/6/6 -4/6/6 -1/6/6
